<svg preserveAspectRatio="none" width="100%" height="100%" overflow="visible" style="display: block;" viewBox="0 0 20 20" fill="none" xmlns="http://www.w3.org/2000/svg">
<g id="Material/Fill/300/handyman">
<mask id="mask0_0_34865" style="mask-type:alpha" maskUnits="userSpaceOnUse" x="0" y="0" width="20" height="20">
<rect id="Bounding box" width="20" height="20" fill="var(--fill-0, #D9D9D9)"/>
</mask>
<g mask="url(#mask0_0_34865)">
<path id="handyman" d="M14.9031 17.5352C14.8234 17.5031 14.7515 17.4551 14.6875 17.391L10.7773 13.4888C10.7131 13.4246 10.6615 13.3492 10.6225 13.2627C10.5836 13.1762 10.5642 13.0897 10.5642 13.0031C10.5642 12.9166 10.5836 12.8335 10.6225 12.754C10.6615 12.6744 10.7131 12.6026 10.7773 12.5385L12.5225 10.7933C12.5865 10.7292 12.6583 10.6776 12.7379 10.6385C12.8175 10.5997 12.9006 10.5802 12.9871 10.5802C13.0736 10.5802 13.1601 10.5997 13.2467 10.6385C13.3333 10.6776 13.4087 10.7292 13.4727 10.7933L17.3829 14.7035C17.4471 14.7676 17.4952 14.8394 17.5273 14.919C17.5592 14.9987 17.5752 15.0818 17.5752 15.1683C17.5752 15.2549 17.5592 15.3414 17.5273 15.4279C17.4952 15.5144 17.4471 15.5897 17.3829 15.6538L15.6169 17.391C15.5528 17.4551 15.481 17.5031 15.4015 17.5352C15.3219 17.5673 15.2388 17.5833 15.1523 17.5833C15.0658 17.5833 14.9827 17.5673 14.9031 17.5352ZM4.59208 17.5104C4.50833 17.4671 4.43437 17.4134 4.37021 17.3494L2.61708 15.6042C2.55292 15.54 2.50618 15.4695 2.47687 15.3927C2.44743 15.3158 2.43271 15.234 2.43271 15.1475C2.43271 15.061 2.4509 14.9765 2.48729 14.8942C2.52354 14.8119 2.57375 14.7388 2.63792 14.6746L6.34458 10.9679H8.26604L9.23396 10L6.18583 6.95187H4.99833L2.45667 4.43104L4.41833 2.44875L6.96 4.99042V6.17792L10.0079 9.22604L12.3894 6.84458L11.2356 5.66979L12.3733 4.53208H10.5225L9.97604 3.99354L12.5127 1.45667L13.0513 1.99521V3.85417L13.689 3.21646L16.8654 6.37667C17.0854 6.59139 17.2547 6.84646 17.3733 7.14187C17.4919 7.43729 17.5512 7.73826 17.5512 8.04479C17.5512 8.3141 17.5013 8.57694 17.4015 8.83333C17.3016 9.08972 17.163 9.31993 16.9856 9.52396L14.976 7.51437L14.0096 8.46L13.1683 7.61854L9.03208 11.734V13.6794L5.35417 17.3702C5.29014 17.4342 5.21826 17.4844 5.13854 17.5208C5.05896 17.5571 4.96896 17.5752 4.86854 17.5752C4.76812 17.5752 4.67597 17.5536 4.59208 17.5104Z" fill="var(--fill-0, #1C1B1F)"/>
</g>
</g>
</svg>
