<svg preserveAspectRatio="none" width="100%" height="100%" overflow="visible" style="display: block;" viewBox="0 0 20 20" fill="none" xmlns="http://www.w3.org/2000/svg">
<g id="Material/Outline/300/mail">
<mask id="mask0_0_29201" style="mask-type:alpha" maskUnits="userSpaceOnUse" x="0" y="0" width="20" height="20">
<rect id="Bounding box" width="20" height="20" fill="var(--fill-0, #D9D9D9)"/>
</mask>
<g mask="url(#mask0_0_29201)">
<path id="mail" d="M3.75 15.583C3.37533 15.583 3.05933 15.4547 2.802 15.198C2.54533 14.9407 2.417 14.6247 2.417 14.25V5.75C2.417 5.37533 2.54533 5.05933 2.802 4.802C3.05933 4.54533 3.37533 4.417 3.75 4.417H16.25C16.6247 4.417 16.9407 4.54533 17.198 4.802C17.4547 5.05933 17.583 5.37533 17.583 5.75V14.25C17.583 14.6247 17.4547 14.9407 17.198 15.198C16.9407 15.4547 16.6247 15.583 16.25 15.583H3.75ZM10 10.625L3.5 6.812V14.25C3.5 14.3193 3.52433 14.3783 3.573 14.427C3.62167 14.4757 3.68067 14.5 3.75 14.5H16.25C16.3193 14.5 16.3783 14.4757 16.427 14.427C16.4757 14.3783 16.5 14.3193 16.5 14.25V6.812L10 10.625ZM10 9.229L16.375 5.5H3.625L10 9.229ZM3.5 6.812V5.5V14.25C3.5 14.3193 3.52433 14.3783 3.573 14.427C3.62167 14.4757 3.68067 14.5 3.75 14.5H3.5V14.25V6.812Z" fill="var(--fill-0, #4F4F4F)"/>
</g>
</g>
</svg>
