<svg preserveAspectRatio="none" width="100%" height="100%" overflow="visible" style="display: block;" viewBox="0 0 31.6667 33.3013" fill="none" xmlns="http://www.w3.org/2000/svg">
<path id="featured_seasonal_and_gifts" d="M2.6925 33.3013V15.0533H0V6.57042H8.86667C8.59028 6.26486 8.39208 5.91778 8.27208 5.52916C8.15208 5.14083 8.09208 4.74083 8.09208 4.32917C8.09208 3.12667 8.51292 2.10444 9.35458 1.2625C10.1963 0.420833 11.2183 0 12.4208 0C13.0678 0 13.6824 0.144443 14.2646 0.433332C14.8468 0.722221 15.3376 1.11736 15.7371 1.61875C16.1368 1.11153 16.6276 0.715 17.2096 0.429166C17.7918 0.143055 18.4064 0 19.0533 0C20.2558 0 21.2781 0.420833 22.12 1.2625C22.9617 2.10444 23.3825 3.12667 23.3825 4.32917C23.3825 4.74 23.3211 5.13847 23.1983 5.52458C23.0753 5.91069 22.8785 6.25931 22.6079 6.57042H31.6667V15.0533H28.9742V33.3013H2.6925ZM17.475 2.73458C17.0444 3.16181 16.8292 3.69111 16.8292 4.3225C16.8292 4.95389 17.0421 5.48361 17.4679 5.91167C17.894 6.33944 18.4218 6.55333 19.0513 6.55333C19.684 6.55333 20.2151 6.34041 20.6446 5.91458C21.0737 5.48847 21.2883 4.96056 21.2883 4.33083C21.2883 3.69833 21.0735 3.16736 20.6438 2.73792C20.214 2.30875 19.6861 2.09417 19.06 2.09417C18.4339 2.09417 17.9056 2.30764 17.475 2.73458ZM10.1858 4.3225C10.1858 4.95389 10.4007 5.48361 10.8304 5.91167C11.2604 6.33944 11.7885 6.55333 12.4146 6.55333C13.0407 6.55333 13.569 6.34041 13.9996 5.91458C14.4301 5.48847 14.6454 4.96056 14.6454 4.33083C14.6454 3.69833 14.4324 3.16736 14.0063 2.73792C13.5804 2.30875 13.0526 2.09417 12.4229 2.09417C11.7901 2.09417 11.2592 2.30764 10.83 2.73458C10.4006 3.16181 10.1858 3.69111 10.1858 4.3225ZM2.09417 8.66458V12.9596H14.7863V8.66458H2.09417ZM14.7863 31.2071V15.0533H4.6625V31.2071H14.7863ZM16.8804 31.2071H27.0042V15.0533H16.8804V31.2071ZM29.5725 12.9596V8.66458H16.8804V12.9596H29.5725Z" fill="var(--fill-0, black)"/>
</svg>
