<svg preserveAspectRatio="none" width="100%" height="100%" overflow="visible" style="display: block;" viewBox="0 0 20 20" fill="none" xmlns="http://www.w3.org/2000/svg">
<g id="Material/Outline/300/list_alt">
<mask id="mask0_0_31450" style="mask-type:alpha" maskUnits="userSpaceOnUse" x="0" y="0" width="20" height="20">
<rect id="Bounding box" width="20" height="20" fill="var(--fill-0, #D9D9D9)"/>
</mask>
<g mask="url(#mask0_0_31450)">
<path id="list_alt" d="M6.792 13.812C6.972 13.812 7.128 13.7497 7.26 13.625C7.392 13.5003 7.458 13.3477 7.458 13.167C7.458 12.9723 7.39567 12.8127 7.271 12.688C7.14567 12.5627 6.986 12.5 6.792 12.5C6.61133 12.5 6.45833 12.5627 6.333 12.688C6.20833 12.8127 6.146 12.9653 6.146 13.146C6.146 13.3267 6.20833 13.483 6.333 13.615C6.45833 13.7463 6.61133 13.812 6.792 13.812ZM6.792 10.646C6.972 10.646 7.128 10.5833 7.26 10.458C7.392 10.3333 7.458 10.1807 7.458 10C7.458 9.81933 7.39567 9.66667 7.271 9.542C7.14567 9.41667 6.986 9.354 6.792 9.354C6.61133 9.354 6.45833 9.41667 6.333 9.542C6.20833 9.66667 6.146 9.81933 6.146 10C6.146 10.1807 6.20833 10.3333 6.333 10.458C6.45833 10.5833 6.61133 10.646 6.792 10.646ZM6.792 7.5C6.972 7.5 7.128 7.43733 7.26 7.312C7.392 7.18733 7.458 7.03467 7.458 6.854C7.458 6.67333 7.39567 6.517 7.271 6.385C7.14567 6.25367 6.986 6.188 6.792 6.188C6.61133 6.188 6.45833 6.25033 6.333 6.375C6.20833 6.49967 6.146 6.65233 6.146 6.833C6.146 7.02767 6.20833 7.18733 6.333 7.312C6.45833 7.43733 6.61133 7.5 6.792 7.5ZM9.083 13.688H13.833V12.604H9.083V13.688ZM9.083 10.542H13.833V9.458H9.083V10.542ZM9.083 7.396H13.833V6.312H9.083V7.396ZM4.75 16.583C4.37533 16.583 4.05933 16.4547 3.802 16.198C3.54533 15.9407 3.417 15.6247 3.417 15.25V4.75C3.417 4.37533 3.54533 4.05933 3.802 3.802C4.05933 3.54533 4.37533 3.417 4.75 3.417H15.25C15.6247 3.417 15.9407 3.54533 16.198 3.802C16.4547 4.05933 16.583 4.37533 16.583 4.75V15.25C16.583 15.6247 16.4547 15.9407 16.198 16.198C15.9407 16.4547 15.6247 16.583 15.25 16.583H4.75ZM4.75 15.5H15.25C15.3053 15.5 15.361 15.4723 15.417 15.417C15.4723 15.361 15.5 15.3053 15.5 15.25V4.75C15.5 4.69467 15.4723 4.639 15.417 4.583C15.361 4.52767 15.3053 4.5 15.25 4.5H4.75C4.69467 4.5 4.639 4.52767 4.583 4.583C4.52767 4.639 4.5 4.69467 4.5 4.75V15.25C4.5 15.3053 4.52767 15.361 4.583 15.417C4.639 15.4723 4.69467 15.5 4.75 15.5Z" fill="var(--fill-0, #4F4F4F)"/>
</g>
</g>
</svg>
