<svg preserveAspectRatio="none" width="100%" height="100%" overflow="visible" style="display: block;" viewBox="0 0 20 20" fill="none" xmlns="http://www.w3.org/2000/svg">
<g id="Material/Outline/300/phone_iphone">
<mask id="mask0_0_23562" style="mask-type:alpha" maskUnits="userSpaceOnUse" x="0" y="0" width="20" height="20">
<rect id="Bounding box" width="20" height="20" fill="var(--fill-0, #D9D9D9)"/>
</mask>
<g mask="url(#mask0_0_23562)">
<path id="phone_iphone" d="M5.75 18.583C5.37533 18.583 5.05933 18.4547 4.802 18.198C4.54533 17.9407 4.417 17.6247 4.417 17.25V2.75C4.417 2.37533 4.54533 2.05933 4.802 1.802C5.05933 1.54533 5.37533 1.417 5.75 1.417H14.25C14.6247 1.417 14.9407 1.54533 15.198 1.802C15.4547 2.05933 15.583 2.37533 15.583 2.75V17.25C15.583 17.6247 15.4547 17.9407 15.198 18.198C14.9407 18.4547 14.6247 18.583 14.25 18.583H5.75ZM5.5 14.312V17.25C5.5 17.3053 5.52767 17.361 5.583 17.417C5.639 17.4723 5.69467 17.5 5.75 17.5H14.25C14.3053 17.5 14.361 17.4723 14.417 17.417C14.4723 17.361 14.5 17.3053 14.5 17.25V14.312H5.5ZM10 16.562C10.1807 16.562 10.3333 16.4963 10.458 16.365C10.5833 16.233 10.646 16.0837 10.646 15.917C10.646 15.7363 10.5833 15.58 10.458 15.448C10.3333 15.316 10.1807 15.25 10 15.25C9.81933 15.25 9.66667 15.3127 9.542 15.438C9.41667 15.5627 9.354 15.7153 9.354 15.896C9.354 16.0767 9.41667 16.233 9.542 16.365C9.66667 16.4963 9.81933 16.562 10 16.562ZM5.5 13.229H14.5V4.792H5.5V13.229ZM5.5 3.708H14.5V2.75C14.5 2.69467 14.4723 2.639 14.417 2.583C14.361 2.52767 14.3053 2.5 14.25 2.5H5.75C5.69467 2.5 5.639 2.52767 5.583 2.583C5.52767 2.639 5.5 2.69467 5.5 2.75V3.708ZM5.5 14.312V17.5V17.25V14.312Z" fill="var(--fill-0, #4F4F4F)"/>
</g>
</g>
</svg>
