<svg preserveAspectRatio="none" width="100%" height="100%" overflow="visible" style="display: block;" viewBox="0 0 20 20" fill="none" xmlns="http://www.w3.org/2000/svg">
<g id="Material/Fill/300/account_circle">
<mask id="mask0_0_38244" style="mask-type:alpha" maskUnits="userSpaceOnUse" x="0" y="0" width="20" height="20">
<rect id="Bounding box" width="20" height="20" fill="var(--fill-0, #D9D9D9)"/>
</mask>
<g mask="url(#mask0_0_38244)">
<path id="account_circle" d="M5.08167 14.2227C5.83167 13.711 6.61375 13.3307 7.42792 13.0817C8.24194 12.8328 9.09931 12.7083 10 12.7083C10.9007 12.7083 11.7581 12.8328 12.5721 13.0817C13.3863 13.3307 14.1683 13.711 14.9183 14.2227C15.4364 13.6533 15.8295 13.008 16.0977 12.2869C16.3659 11.5658 16.5 10.8035 16.5 10C16.5 8.19444 15.8681 6.65972 14.6042 5.39583C13.3403 4.13194 11.8056 3.5 10 3.5C8.19444 3.5 6.65972 4.13194 5.39583 5.39583C4.13194 6.65972 3.5 8.19444 3.5 10C3.5 10.8035 3.6341 11.5658 3.90229 12.2869C4.17049 13.008 4.56361 13.6533 5.08167 14.2227ZM8.02333 10.4767C7.48 9.93347 7.20833 9.27458 7.20833 8.5C7.20833 7.72542 7.48 7.06653 8.02333 6.52333C8.56653 5.98 9.22542 5.70833 10 5.70833C10.7746 5.70833 11.4335 5.98 11.9767 6.52333C12.52 7.06653 12.7917 7.72542 12.7917 8.5C12.7917 9.27458 12.52 9.93347 11.9767 10.4767C11.4335 11.02 10.7746 11.2917 10 11.2917C9.22542 11.2917 8.56653 11.02 8.02333 10.4767ZM10 17.5833C8.95625 17.5833 7.97361 17.387 7.05208 16.9944C6.13056 16.6017 5.32396 16.0595 4.63229 15.3677C3.94049 14.676 3.39826 13.8694 3.00562 12.9479C2.61299 12.0264 2.41667 11.0438 2.41667 10C2.41667 8.94236 2.61299 7.95625 3.00562 7.04167C3.39826 6.12708 3.94049 5.32396 4.63229 4.63229C5.32396 3.94049 6.13056 3.39826 7.05208 3.00563C7.97361 2.61299 8.95625 2.41667 10 2.41667C11.0576 2.41667 12.0438 2.61299 12.9583 3.00563C13.8729 3.39826 14.676 3.94049 15.3677 4.63229C16.0595 5.32396 16.6017 6.12708 16.9944 7.04167C17.387 7.95625 17.5833 8.94236 17.5833 10C17.5833 11.0438 17.387 12.0264 16.9944 12.9479C16.6017 13.8694 16.0595 14.676 15.3677 15.3677C14.676 16.0595 13.8729 16.6017 12.9583 16.9944C12.0438 17.387 11.0576 17.5833 10 17.5833Z" fill="var(--fill-0, black)"/>
</g>
</g>
</svg>
