<svg preserveAspectRatio="none" width="100%" height="100%" overflow="visible" style="display: block;" viewBox="0 0 20 20" fill="none" xmlns="http://www.w3.org/2000/svg">
<g id="Material/Outline/300/schedule">
<mask id="mask0_0_35994" style="mask-type:alpha" maskUnits="userSpaceOnUse" x="0" y="0" width="20" height="20">
<rect id="Bounding box" width="20" height="20" fill="var(--fill-0, #D9D9D9)"/>
</mask>
<g mask="url(#mask0_0_35994)">
<path id="schedule" d="M12.938 13.396L13.708 12.625L10.542 9.458V5H9.458V9.917L12.938 13.396ZM10 17.583C8.95867 17.583 7.976 17.3853 7.052 16.99C6.12867 16.594 5.323 16.0523 4.635 15.365C3.94767 14.677 3.406 13.8713 3.01 12.948C2.61467 12.024 2.417 11.0413 2.417 10C2.417 8.94467 2.61467 7.955 3.01 7.031C3.406 6.10767 3.94767 5.30567 4.635 4.625C5.323 3.94433 6.12867 3.406 7.052 3.01C7.976 2.61467 8.95867 2.417 10 2.417C11.0553 2.417 12.045 2.61467 12.969 3.01C13.8923 3.406 14.6943 3.94767 15.375 4.635C16.0557 5.323 16.594 6.12533 16.99 7.042C17.3853 7.95867 17.583 8.94467 17.583 10C17.583 11.0413 17.3853 12.024 16.99 12.948C16.594 13.8713 16.0557 14.677 15.375 15.365C14.6943 16.0523 13.8923 16.594 12.969 16.99C12.045 17.3853 11.0553 17.583 10 17.583ZM10 16.5C11.8053 16.5 13.34 15.8647 14.604 14.594C15.868 13.3233 16.5 11.792 16.5 10C16.5 8.19467 15.868 6.66 14.604 5.396C13.34 4.132 11.8053 3.5 10 3.5C8.208 3.5 6.67667 4.132 5.406 5.396C4.13533 6.66 3.5 8.19467 3.5 10C3.5 11.792 4.13533 13.3233 5.406 14.594C6.67667 15.8647 8.208 16.5 10 16.5Z" fill="var(--fill-0, #4F4F4F)"/>
</g>
</g>
</svg>
