<svg preserveAspectRatio="none" width="100%" height="100%" overflow="visible" style="display: block;" viewBox="0 0 100 19.1449" fill="none" xmlns="http://www.w3.org/2000/svg">
<g id="Base / Logo in Footer">
<g id="Vector">
<path d="M70.4399 0.191447L69.5161 5.07336C69.5161 5.12122 69.5161 5.21694 69.5601 5.2648C69.6041 5.31266 69.6481 5.36053 69.7361 5.36053H73.4147C73.5027 5.36053 73.5907 5.2648 73.5907 5.16908L74.5144 0.287171C74.5144 0.239309 74.5144 0.143586 74.4704 0.0957237C74.4264 0.0478618 74.3824 0 74.2945 0H70.6158C70.5279 0 70.4399 0.0957237 70.4399 0.191447Z" fill="var(--fill-0, black)"/>
<path d="M69.3074 6.31175L68.7097 9.30955C68.7097 9.3559 68.7097 9.44862 68.7554 9.49498C68.8012 9.54133 68.847 9.58769 68.9385 9.58769H72.6623C72.7538 9.58769 72.8454 9.49498 72.8454 9.40226L73.3871 6.40447C73.3871 6.35811 73.3871 6.2654 73.3413 6.21904C73.2955 6.17268 73.2498 6.12632 73.1582 6.12632H69.4905C69.399 6.12632 69.3074 6.21904 69.3074 6.31175Z" fill="#C7D300"/>
<path d="M14.4814 14.7752C14.5248 14.4599 14.5682 14.0995 14.5682 13.7842C14.5682 11.9373 13.5709 10.9463 11.6632 10.9463H6.28685C5.85328 10.9463 5.59313 10.9913 5.4197 10.8562C5.28963 10.7661 5.33299 10.5409 5.4197 10.2255C5.50642 9.91022 5.76656 9.54985 6.11342 9.54985C6.50364 9.54985 6.46028 9.54985 6.76379 9.54985H15.392C15.4787 9.54985 15.5654 9.45976 15.5654 9.36967L16.129 6.3966C16.129 6.35156 16.129 6.26146 16.0857 6.21642C16.0423 6.17137 15.999 6.12632 15.9122 6.12632H6.67707C5.89664 6.12632 5.20291 6.17137 4.68262 6.26146C4.11897 6.35156 3.64204 6.4867 3.29518 6.75697C2.90496 7.02725 2.60146 7.43267 2.38467 7.92818C2.16788 8.42369 1.95109 9.05434 1.77766 9.82013L1.51752 11.0814L1.47416 11.3968V11.7121C1.47416 12.5229 1.77766 13.1986 2.38467 13.6941C2.99168 14.1896 3.81547 14.4149 4.94277 14.4149H10.3625C10.4492 14.4149 10.666 14.4149 10.666 14.55C10.7093 14.7302 10.5359 15.4059 10.3191 15.541C10.1023 15.7212 9.75546 15.6762 9.4086 15.6762H0.780437C0.693722 15.6762 0.607007 15.7663 0.607007 15.8564L0 18.8745C0 18.9195 0 19.0096 0.0433576 19.0547C0.0867152 19.0997 0.130073 19.1447 0.216788 19.1447H9.49532C10.3191 19.1447 11.0128 19.0997 11.5331 19.0096C12.0968 18.9195 12.5737 18.7393 12.9206 18.469C13.3108 18.1988 13.6143 17.7934 13.8311 17.2978C14.0479 16.8474 14.2647 16.1717 14.4381 15.4509L14.4814 14.7752Z" fill="var(--fill-0, black)"/>
<path d="M46.7742 6.30405C45.2509 6.30405 44.086 6.61507 43.2796 7.14825C42.4731 7.72586 41.9355 8.65892 41.6667 9.99186L40.5466 15.3681C40.457 15.6791 40.4122 15.9901 40.3674 16.2567C40.3226 16.5233 40.3226 16.7899 40.3226 17.012C40.3226 17.4119 40.3674 17.7674 40.5018 18.034C40.6362 18.3005 40.8602 18.5227 41.1738 18.7004C41.4875 18.8782 41.8459 18.967 42.3387 19.0559C42.8316 19.1003 43.414 19.1447 44.086 19.1447H53.3602C53.4498 19.1447 53.5394 19.0559 53.5842 18.967L54.2115 15.9901C54.2115 15.9457 54.2115 15.8568 54.1667 15.8124C54.1219 15.768 54.0771 15.7235 53.9875 15.7235H46.1022C45.2957 15.7235 44.9821 15.6347 44.8477 15.5902C44.7581 15.5458 44.6237 15.4569 44.6237 15.1459C44.6237 14.9238 44.6685 14.6127 44.7581 14.2573L45.3853 11.2804C45.4749 10.9249 45.5645 10.6139 45.6541 10.3917C45.7437 10.214 45.8781 10.0363 46.0126 9.903C46.147 9.81414 46.3262 9.72527 46.5502 9.68084C46.819 9.63641 47.1326 9.63641 47.4911 9.63641H50.7169C51.0753 9.63641 51.3441 9.68084 51.4337 9.7697C51.4785 9.81414 51.4785 9.85857 51.4785 9.94743C51.4785 10.0363 51.4785 10.1252 51.4337 10.214C51.4337 10.214 51.2993 10.7916 51.2545 10.9694C50.9409 10.9694 47.0878 10.9694 47.0878 10.9694C46.8638 10.9694 46.6846 11.1026 46.6398 11.2804L46.0126 14.0796V14.124C46.0126 14.1684 46.0126 14.2129 46.0574 14.2573C46.1022 14.3017 46.147 14.3461 46.2366 14.3461H54.3907C54.4803 14.3461 54.5699 14.2573 54.5699 14.1684L55.4212 9.94743C55.5556 9.32539 55.6452 8.79221 55.6452 8.30347C55.6452 7.45927 55.3316 6.88166 54.7491 6.57064C54.2115 6.30405 53.2706 6.12632 51.8817 6.12632L46.7742 6.30405Z" fill="var(--fill-0, black)"/>
<path d="M86.4162 6.12632C87.1514 6.12632 87.7496 6.12639 88.2551 6.21617C88.7604 6.30595 89.1737 6.4409 89.4494 6.57554C89.771 6.75508 90.001 6.97916 90.1388 7.29332C90.2767 7.60744 90.3224 7.92174 90.3224 8.32554C90.3224 8.77438 90.2308 9.31342 90.0929 9.94175L88.9435 15.4183C88.7598 16.2262 88.5766 16.8552 88.3469 17.3041C88.1172 17.7977 87.7954 18.2017 87.382 18.4711C86.9685 18.7404 86.4627 18.9203 85.8654 19.0101C85.314 19.0999 84.5783 19.1449 83.7053 19.1449H78.0539C76.6294 19.1449 75.6639 19.0099 75.1125 18.7406C74.5152 18.4712 74.1935 17.8874 74.1935 16.9896C74.1936 16.5409 74.2853 16.0025 74.423 15.3744L75.5724 9.89683C75.7562 9.13408 75.9854 8.50572 76.215 8.01207C76.4448 7.51826 76.7673 7.11344 77.1808 6.8441C77.5483 6.57501 78.0536 6.39577 78.6506 6.30601C79.202 6.21623 79.9377 6.17125 80.7648 6.17125L86.4162 6.12632ZM81.4543 9.58335C81.0407 9.58335 80.7183 9.58339 80.4426 9.62828C80.2132 9.6731 80.0295 9.71742 79.8918 9.80699C79.7539 9.89677 79.6614 10.0766 79.5695 10.2562C79.4776 10.4806 79.386 10.7948 79.2941 11.1986L78.6965 14.2064C78.6046 14.8349 78.5588 15.06 78.5588 15.1498C78.5589 15.4632 78.6964 15.5531 78.7883 15.598C78.9261 15.6429 79.2942 15.7328 80.0754 15.7328H82.9699C83.4294 15.7328 83.7518 15.7327 84.0275 15.6878C84.2571 15.6429 84.4405 15.553 84.5783 15.4632C84.7161 15.3735 84.8087 15.1945 84.9006 15.015C84.9925 14.7905 85.0382 14.4757 85.1301 14.1166L85.7277 11.1087C85.8196 10.4807 85.8654 10.2561 85.8654 10.1664C85.8654 9.85242 85.7278 9.76205 85.6359 9.71714C85.4981 9.67225 85.1759 9.58335 84.3488 9.58335H81.4543Z" fill="var(--fill-0, black)"/>
<path d="M95.6161 0C95.5129 0 95.4098 0.0911654 95.4098 0.182331L91.129 18.8712C91.129 18.9168 91.129 19.008 91.1806 19.0536C91.2322 19.0992 91.2837 19.1447 91.3869 19.1447H95.5129C95.6161 19.1447 95.7192 19.0536 95.7192 18.9624L100 0.273496C100 0.227914 100 0.136748 99.9484 0.0911654C99.8968 0.0455827 99.8453 0 99.7421 0H95.6161Z" fill="var(--fill-0, black)"/>
<path d="M35.445 6.12632C35.3503 6.12632 35.2556 6.21611 35.2556 6.30589L33.5988 14.1169C33.5041 14.4761 33.4568 14.7454 33.3621 14.9699C33.2674 15.1494 33.1727 15.329 33.0307 15.4188C32.8887 15.5086 32.6993 15.5983 32.4626 15.6432C32.1786 15.6881 31.9893 15.6881 31.5632 15.6881H31.0898C30.2377 15.6881 29.9063 15.5983 29.7643 15.5535C29.6696 15.5086 29.5276 15.4188 29.5276 15.1045C29.5276 15.0148 31.3738 6.39567 31.3738 6.39567V6.35078C31.3738 6.30589 31.3738 6.261 31.3265 6.21611C31.2792 6.17121 31.2318 6.12632 31.1372 6.12632H27.35C27.2554 6.12632 27.1607 6.21611 27.1607 6.30589L25.5038 14.1169C25.4091 14.4761 25.3618 14.7454 25.2671 14.9699C25.1725 15.1494 25.0778 15.329 24.9358 15.4188C24.7937 15.5086 24.6044 15.5983 24.3677 15.6432C24.0837 15.6881 23.8943 15.6881 23.4683 15.6881H22.8528C22.0008 15.6881 21.8587 15.5983 21.7167 15.5535C21.622 15.5086 21.48 15.3739 21.48 15.0597C21.48 14.8352 21.5747 14.5659 21.622 14.2067L23.2789 6.39567C23.2789 6.35078 23.2789 6.261 23.2316 6.21611C23.1842 6.17121 23.1369 6.12632 23.0422 6.12632H19.2551C19.1604 6.12632 19.0657 6.21611 19.0657 6.30589L17.1722 15.329C16.9828 16.0473 16.9355 16.5411 16.9355 16.9451C16.9355 17.8429 17.2669 18.4265 17.8823 18.6958C18.4977 18.9652 19.4918 19.0999 20.9593 19.0999H23.4209C24.131 19.0999 25.2671 18.9203 25.7879 18.6958C26.2139 18.5163 26.5453 18.2918 26.8293 17.9327C26.9713 18.2918 27.35 18.6509 27.7761 18.8305C28.2968 19.055 29.1489 19.1447 30.6164 19.1447H33.8828C35.6343 19.1447 36.8652 18.7856 37.2439 17.0349L39.5161 6.44056C39.5161 6.39567 39.5161 6.30589 39.4688 6.261C39.4215 6.21611 39.3741 6.17121 39.2794 6.17121L35.445 6.12632Z" fill="var(--fill-0, black)"/>
<path d="M63.8579 6.17121C63.0271 6.17121 62.2887 6.21611 61.7349 6.30589C61.1349 6.39567 60.6272 6.57523 60.258 6.84458C59.8426 7.11393 59.5195 7.51795 59.2888 8.01175C59.058 8.50555 58.8273 9.13403 58.6427 9.89718L57.4888 15.3739C57.3504 16.0024 57.2581 16.5411 57.2581 16.99C57.2581 17.4389 57.3504 17.798 57.4888 18.0674C57.6273 18.3367 57.8581 18.6061 58.2273 18.7407C58.5503 18.8754 58.9657 19.0101 59.4272 19.055C59.8888 19.0999 60.4426 19.1447 61.181 19.1447H70.6423C70.7346 19.1447 70.8269 19.055 70.8269 18.9652L72.5807 10.6603C72.5807 10.6154 72.5807 10.5257 72.5345 10.4808C72.4884 10.4359 72.4422 10.391 72.3499 10.391H68.6577C68.5654 10.391 68.4731 10.4808 68.4731 10.5705C67.7808 13.8925 67.8731 13.5334 67.4116 15.733C67.0885 15.733 63.1656 15.733 63.1656 15.733C62.3348 15.733 62.0118 15.6432 61.8733 15.5983C61.781 15.5535 61.6426 15.4637 61.6426 15.1494C61.6426 15.0597 61.6887 14.8352 61.781 14.2067L62.4271 11.199C62.5195 10.795 62.6118 10.4808 62.7041 10.2563C62.7964 10.0767 62.8887 9.89718 63.0271 9.80739C63.1656 9.71761 63.3502 9.67272 63.581 9.62783C63.8579 9.58294 64.1809 9.58294 64.5963 9.58294H67.5962C67.6885 9.58294 67.7808 9.49316 67.827 9.40337L68.427 6.39567C68.427 6.35078 68.427 6.261 68.3808 6.21611C68.3346 6.17121 68.2885 6.12632 68.1962 6.12632L63.8579 6.17121Z" fill="var(--fill-0, black)"/>
</g>
</g>
</svg>
