<svg preserveAspectRatio="none" width="100%" height="100%" overflow="visible" style="display: block;" viewBox="0 0 200 38.28" fill="none" xmlns="http://www.w3.org/2000/svg">
<g id="negativ">
<path id="Shape" d="M140.88 0.3828L139.032 10.1442C139.032 10.2399 139.032 10.4313 139.12 10.527C139.208 10.6227 139.296 10.7184 139.472 10.7184H146.829C147.005 10.7184 147.181 10.527 147.181 10.3356L149.029 0.5742C149.029 0.4785 149.029 0.2871 148.941 0.1914C148.853 0.0957 148.765 0 148.589 0H141.232C141.056 0 140.88 0.1914 140.88 0.3828Z" fill="var(--fill-0, white)"/>
<path id="Shape Copy" d="M138.615 12.6204L137.419 18.6145C137.419 18.7072 137.419 18.8925 137.511 18.9852C137.602 19.0779 137.694 19.1706 137.877 19.1706H145.325C145.508 19.1706 145.691 18.9852 145.691 18.7999L146.774 12.8058C146.774 12.7131 146.774 12.5277 146.683 12.435C146.591 12.3423 146.5 12.2496 146.316 12.2496H138.981C138.798 12.2496 138.615 12.435 138.615 12.6204Z" fill="var(--fill-0, #C7D300)"/>
<path id="Shape_2" d="M28.9629 29.5432C29.0496 28.9127 29.1363 28.1921 29.1363 27.5616C29.1363 23.8687 27.1419 21.8872 23.3264 21.8872H12.5737C11.7066 21.8872 11.1863 21.9772 10.8394 21.707C10.5793 21.5269 10.666 21.0765 10.8394 20.446C11.0128 19.8155 11.5331 19.095 12.2268 19.095C13.0073 19.095 12.9206 19.095 13.5276 19.095H30.7839C30.9573 19.095 31.1308 18.9148 31.1308 18.7347L32.2581 12.79C32.2581 12.7 32.2581 12.5198 32.1713 12.4297C32.0846 12.3397 31.9979 12.2496 31.8245 12.2496H13.3541C11.7933 12.2496 10.4058 12.3397 9.36524 12.5198C8.23795 12.7 7.28408 12.9702 6.59036 13.5106C5.80992 14.051 5.20291 14.8616 4.76934 15.8524C4.33576 16.8432 3.90219 18.1042 3.55532 19.6354L3.03503 22.1574L2.94832 22.7879V23.4184C2.94832 25.0396 3.55532 26.3907 4.76934 27.3815C5.98335 28.3722 7.63094 28.8226 9.88554 28.8226H20.7249C20.8984 28.8226 21.3319 28.8226 21.3319 29.0928C21.4187 29.4531 21.0718 30.8041 20.6382 31.0744C20.2046 31.4346 19.5109 31.3446 18.8172 31.3446H1.56087C1.38744 31.3446 1.21401 31.5247 1.21401 31.7048L0 37.7396C0 37.8296 0 38.0098 0.0867152 38.0999C0.17343 38.1899 0.260146 38.28 0.433576 38.28H18.9906C20.6382 38.28 22.0257 38.1899 23.0663 38.0098C24.1935 37.8296 25.1474 37.4694 25.8411 36.9289C26.6216 36.3885 27.2286 35.5779 27.6622 34.5871C28.0957 33.6864 28.5293 32.3353 28.8762 30.8942L28.9629 29.5432Z" fill="var(--fill-0, white)"/>
<path id="Shape_3" d="M93.5484 12.605C90.5018 12.605 88.172 13.2269 86.5591 14.2929C84.9462 15.4479 83.871 17.3135 83.3333 19.9788L81.0932 30.7285C80.914 31.3504 80.8244 31.9723 80.7348 32.5053C80.6452 33.0384 80.6452 33.5714 80.6452 34.0156C80.6452 34.8152 80.7348 35.5259 81.0036 36.059C81.2724 36.592 81.7204 37.0362 82.3477 37.3916C82.9749 37.747 83.6918 37.9246 84.6774 38.1023C85.6631 38.1912 86.828 38.28 88.172 38.28H106.72C106.9 38.28 107.079 38.1023 107.168 37.9246L108.423 31.9723C108.423 31.8835 108.423 31.7058 108.333 31.6169C108.244 31.5281 108.154 31.4392 107.975 31.4392H92.2043C90.5914 31.4392 89.9642 31.2616 89.6953 31.1727C89.5161 31.0839 89.2473 30.9062 89.2473 30.2843C89.2473 29.8401 89.3369 29.2182 89.5161 28.5075L90.7706 22.5552C90.9498 21.8444 91.129 21.2225 91.3082 20.7783C91.4875 20.423 91.7563 20.0676 92.0251 19.8011C92.2939 19.6234 92.6523 19.4457 93.1004 19.3569C93.638 19.268 94.2652 19.268 94.9821 19.268H101.434C102.151 19.268 102.688 19.3569 102.867 19.5346C102.957 19.6234 102.957 19.7122 102.957 19.8899C102.957 20.0676 102.957 20.2453 102.867 20.423C102.867 20.423 102.599 21.5779 102.509 21.9333C101.882 21.9333 94.1756 21.9333 94.1756 21.9333C93.7276 21.9333 93.3692 22.1998 93.2796 22.5552L92.0251 28.1521V28.241C92.0251 28.3298 92.0251 28.4187 92.1147 28.5075C92.2043 28.5963 92.2939 28.6852 92.4731 28.6852H108.781C108.961 28.6852 109.14 28.5075 109.14 28.3298L110.842 19.8899C111.111 18.6461 111.29 17.5801 111.29 16.6028C111.29 14.9148 110.663 13.7599 109.498 13.138C108.423 12.605 106.541 12.2496 103.763 12.2496L93.5484 12.605Z" fill="var(--fill-0, white)"/>
<path id="Shape_4" d="M172.833 12.2496C174.304 12.2496 175.498 12.2498 176.509 12.4293C177.52 12.6088 178.347 12.8778 178.899 13.1471C179.542 13.5061 180.002 13.9553 180.278 14.5836C180.553 15.2118 180.645 15.8403 180.645 16.648C180.645 17.5456 180.462 18.6229 180.186 19.8795L177.888 30.8297C177.52 32.4454 177.153 33.7026 176.694 34.6002C176.234 35.5875 175.59 36.3947 174.763 36.9332C173.936 37.4717 172.925 37.8308 171.731 38.0103C170.628 38.1898 169.157 38.2799 167.412 38.2799H156.107C153.258 38.2799 151.328 38.0108 150.225 37.4723C149.03 36.9337 148.387 35.7664 148.387 33.9713C148.387 33.0737 148.571 31.9964 148.847 30.7398L151.144 19.7896C151.512 18.2637 151.972 17.0065 152.431 16.0191C152.891 15.032 153.534 14.2246 154.361 13.6861C155.096 13.1476 156.107 12.7885 157.302 12.609C158.405 12.4295 159.876 12.3394 161.53 12.3394L172.833 12.2496ZM162.908 19.1607C162.081 19.1607 161.437 19.1609 160.886 19.2506C160.427 19.3403 160.059 19.4306 159.784 19.61C159.508 19.7894 159.324 20.1484 159.14 20.5074C158.956 20.9562 158.772 21.5845 158.588 22.3922L157.394 28.4068C157.21 29.6632 157.118 30.1121 157.118 30.2916C157.118 30.9197 157.394 31.0993 157.578 31.1891C157.853 31.2788 158.589 31.4586 160.151 31.4586H165.941C166.86 31.4586 167.503 31.4584 168.054 31.3687C168.514 31.279 168.882 31.099 169.158 30.9195C169.433 30.74 169.616 30.3809 169.8 30.0221C169.984 29.5733 170.076 28.9451 170.26 28.2271L171.454 22.2125C171.638 20.9562 171.731 20.5072 171.731 20.3277C171.731 19.6996 171.455 19.52 171.271 19.4303C170.995 19.3405 170.352 19.1607 168.698 19.1607H162.908Z" fill="var(--fill-0, white)"/>
<path id="Shape_5" d="M191.232 0C191.026 0 190.82 0.182286 190.82 0.364571L182.258 37.7331C182.258 37.8243 182.258 38.0066 182.361 38.0977C182.464 38.1889 182.568 38.28 182.774 38.28H191.026C191.232 38.28 191.438 38.0977 191.438 37.9154L200 0.546857C200 0.455714 200 0.273429 199.897 0.182286C199.794 0.0911429 199.691 0 199.484 0H191.232V0Z" fill="var(--fill-0, white)"/>
<path id="Shape_6" d="M70.89 12.2496C70.7006 12.2496 70.5113 12.4291 70.5113 12.6086L67.1975 28.2269C67.0082 28.945 66.9135 29.4835 66.7241 29.9323C66.5348 30.2914 66.3454 30.6504 66.0614 30.8299C65.7774 31.0094 65.3987 31.189 64.9253 31.2787C64.3572 31.3685 63.9785 31.3685 63.1264 31.3685H62.1796C60.4754 31.3685 59.8127 31.189 59.5286 31.0992C59.3393 31.0094 59.0552 30.8299 59.0552 30.2016C59.0552 30.0221 62.7477 12.7882 62.7477 12.7882V12.6984C62.7477 12.6086 62.7477 12.5189 62.653 12.4291C62.5583 12.3394 62.4637 12.2496 62.2743 12.2496H54.7001C54.5107 12.2496 54.3214 12.4291 54.3214 12.6086L51.0076 28.2269C50.8183 28.945 50.7236 29.4835 50.5343 29.9323C50.3449 30.2914 50.1555 30.6504 49.8715 30.8299C49.5875 31.0094 49.2088 31.189 48.7354 31.2787C48.1673 31.3685 47.7886 31.3685 46.9365 31.3685H45.7057C44.0015 31.3685 43.7175 31.189 43.4334 31.0992C43.2441 31.0094 42.96 30.7402 42.96 30.1118C42.96 29.663 43.1494 29.1245 43.2441 28.4064L46.5578 12.7882C46.5578 12.6984 46.5578 12.5189 46.4631 12.4291C46.3684 12.3394 46.2738 12.2496 46.0844 12.2496H38.5102C38.3208 12.2496 38.1315 12.4291 38.1315 12.6086L34.3444 30.6504C33.9656 32.0866 33.871 33.0739 33.871 33.8818C33.871 35.677 34.5337 36.8438 35.7645 37.3824C36.9953 37.921 38.9836 38.1902 41.9186 38.1902H46.8418C48.262 38.1902 50.5343 37.8312 51.5757 37.3824C52.4278 37.0234 53.0906 36.5746 53.6586 35.8565C53.9427 36.5746 54.7001 37.2926 55.5522 37.6517C56.5936 38.1005 58.2978 38.28 61.2328 38.28H67.7656C71.2687 38.28 73.7303 37.5619 74.4877 34.0613L79.0323 12.8779C79.0323 12.7882 79.0323 12.6086 78.9376 12.5189C78.8429 12.4291 78.7482 12.3394 78.5589 12.3394L70.89 12.2496Z" fill="var(--fill-0, white)"/>
<path id="Shape_7" d="M127.716 12.3394C126.054 12.3394 124.577 12.4291 123.47 12.6086C122.27 12.7882 121.254 13.1472 120.516 13.6858C119.685 14.2243 119.039 15.0322 118.578 16.0195C118.116 17.0069 117.654 18.2635 117.285 19.7894L114.978 30.7402C114.701 31.9968 114.516 33.0739 114.516 33.9715C114.516 34.8691 114.701 35.5872 114.978 36.1258C115.255 36.6643 115.716 37.2029 116.455 37.4722C117.101 37.7414 117.931 38.0107 118.854 38.1005C119.778 38.1902 120.885 38.28 122.362 38.28H141.285C141.469 38.28 141.654 38.1005 141.654 37.921L145.161 21.3154C145.161 21.2256 145.161 21.0461 145.069 20.9563C144.977 20.8666 144.884 20.7768 144.7 20.7768H137.315C137.131 20.7768 136.946 20.9563 136.946 21.1358C135.562 27.7781 135.746 27.06 134.823 31.4582C134.177 31.4582 126.331 31.4582 126.331 31.4582C124.67 31.4582 124.024 31.2787 123.747 31.189C123.562 31.0992 123.285 30.9197 123.285 30.2914C123.285 30.1118 123.377 29.663 123.562 28.4064L124.854 22.3925C125.039 21.5846 125.223 20.9563 125.408 20.5075C125.593 20.1485 125.777 19.7894 126.054 19.6099C126.331 19.4304 126.7 19.3406 127.162 19.2509C127.716 19.1611 128.362 19.1611 129.193 19.1611H135.192C135.377 19.1611 135.562 18.9816 135.654 18.8021L136.854 12.7882C136.854 12.6984 136.854 12.5189 136.762 12.4291C136.669 12.3394 136.577 12.2496 136.392 12.2496L127.716 12.3394Z" fill="var(--fill-0, white)"/>
</g>
</svg>
