<svg width="24" height="24" viewBox="0 0 24 24" fill="none" xmlns="http://www.w3.org/2000/svg">
<g clip-path="url(#clip0_4228_16596)">
<path d="M7.5168 12.5379L8.49584 6.0506C8.11016 6.0506 7.45005 6.0506 7.45005 6.0506C6.96053 6.0506 6.3301 5.7621 6.14467 5.23188C6.08534 5.05255 5.94442 4.43656 6.75286 3.83617C7.04212 3.62565 7.22754 3.39173 7.26463 3.21239C7.30171 3.02526 7.25721 2.86151 7.13112 2.73676C6.95312 2.55742 6.60452 2.45605 6.15951 2.45605C5.4104 2.45605 4.8838 2.9083 4.83188 3.23578C4.7948 3.4775 4.9728 3.67243 5.12856 3.79719C5.59582 4.16366 5.70708 4.69387 5.41782 5.1929C5.12114 5.70752 4.47587 6.0428 3.78609 6.0506C3.78609 6.0506 3.10374 6.0506 2.71806 6.0506C2.62906 6.68217 1.17534 16.3664 1.06409 17.1305H6.83445C6.88637 16.7952 7.15337 14.9629 7.5168 12.5379Z" fill="white"/>
<path d="M0.752508 19.3762H3.1185C4.1272 19.3762 4.37196 19.9142 4.29779 20.4055C4.23846 20.8031 3.97887 21.0994 3.53385 21.2943C4.09754 21.5205 4.32005 21.8713 4.23846 22.425C4.13462 23.1189 3.56352 23.6335 2.81441 23.6335H0.12207L0.752508 19.3762ZM2.31748 21.1384C2.77733 21.1384 2.99242 20.8811 3.03692 20.577C3.08142 20.2495 2.9405 20.0234 2.48065 20.0234H2.07272L1.90955 21.1384H2.31748ZM2.0653 22.9708C2.53998 22.9708 2.81441 22.768 2.88116 22.3548C2.93308 21.9961 2.74024 21.7856 2.28039 21.7856H1.82054L1.64254 22.9786H2.0653V22.9708Z" fill="white"/>
<path d="M7.55381 23.6648C6.93821 23.7116 6.64153 23.6414 6.49319 23.3607C6.16685 23.5712 5.80342 23.6804 5.41774 23.6804C4.72055 23.6804 4.47579 23.2983 4.54254 22.8773C4.57221 22.6745 4.68346 22.4796 4.86147 22.3158C5.24715 21.965 6.19652 21.9182 6.56736 21.6531C6.59703 21.3568 6.48578 21.2476 6.13718 21.2476C5.72925 21.2476 5.38807 21.388 4.80214 21.809L4.94306 20.8422C5.44741 20.4601 5.93692 20.2808 6.50061 20.2808C7.22005 20.2808 7.85791 20.5927 7.73923 21.4192L7.59831 22.3548C7.54639 22.6823 7.56123 22.7837 7.90982 22.7915L7.55381 23.6648ZM6.48578 22.1911C6.15943 22.4094 5.55124 22.3704 5.48449 22.8227C5.45482 23.0332 5.58091 23.1891 5.78117 23.1891C5.97401 23.1891 6.21135 23.1034 6.40419 22.963C6.38936 22.885 6.39677 22.8071 6.41902 22.6589L6.48578 22.1911Z" fill="white"/>
<path d="M8.70354 20.3353H9.93474L9.86799 20.7642C10.2611 20.4133 10.5578 20.2808 10.9434 20.2808C11.6332 20.2808 11.9521 20.7252 11.8409 21.4504L11.522 23.6258H10.2908L10.5578 21.8246C10.6097 21.4971 10.5133 21.3412 10.2759 21.3412C10.0831 21.3412 9.90508 21.4504 9.73449 21.6921L9.45264 23.618H8.22144L8.70354 20.3353Z" fill="white"/>
<path d="M12.805 19.3762H14.0362L13.7247 21.4659L14.904 20.3353H16.4245L14.9114 21.7388L16.1278 23.6257H14.5776L13.6431 22.0975H13.6283L13.4058 23.6179H12.1746L12.805 19.3762Z" fill="white"/>
<path d="M17.1588 19.3762H18.5754L17.9524 23.6257H16.5358L17.1588 19.3762Z" fill="white"/>
<path d="M19.2652 19.3762H21.29C22.855 19.3762 23.3074 20.5692 23.1591 21.5595C23.0182 22.5263 22.2913 23.6257 20.9192 23.6257H18.6348L19.2652 19.3762ZM20.578 22.6121C21.2678 22.6121 21.646 22.2534 21.7573 21.4971C21.8389 20.9357 21.6757 20.3821 20.9118 20.3821H20.5335L20.2072 22.6121H20.578Z" fill="white"/>
<path d="M15.2749 0.38208H9.37848L8.59229 5.62964H9.59357C10.1424 5.62964 10.6616 5.36454 10.8841 4.98247C10.9583 4.85771 10.988 4.74855 10.988 4.64719C10.988 4.42886 10.847 4.26512 10.7061 4.15596C10.3204 3.85186 10.2388 3.53218 10.2388 3.30606C10.2388 3.25927 10.2388 3.22029 10.2463 3.1813C10.3278 2.62769 11.0399 2.0273 11.9818 2.0273C12.5455 2.0273 12.9757 2.16765 13.2353 2.42496C13.4652 2.65109 13.5542 2.97077 13.4874 3.30606C13.4059 3.70372 13.0276 4.0312 12.8125 4.19494C12.2414 4.616 12.3156 4.98247 12.3527 5.09163C12.4713 5.41912 12.9238 5.62964 13.2724 5.62964H14.8002C14.8002 5.62964 14.8002 5.62964 14.8002 5.63744C16.877 5.65303 17.9895 6.65888 17.6409 8.99806C17.3146 11.1735 15.7274 12.1092 13.836 12.1248L13.0869 17.1462H14.1921C18.8573 17.1462 22.6696 13.9961 23.4187 9.02146C24.3458 2.84602 20.6151 0.38208 15.2749 0.38208Z" fill="white"/>
</g>
<defs>
<clipPath id="clip0_4228_16596">
<rect width="24" height="24" fill="white"/>
</clipPath>
</defs>
</svg>
