<svg preserveAspectRatio="none" width="100%" height="100%" overflow="visible" style="display: block;" viewBox="0 0 24.2807 14.7394" fill="none" xmlns="http://www.w3.org/2000/svg">
<g id="Group">
<path id="Vector" d="M15.4219 1.57511H8.856V13.1641H15.4219V1.57511Z" fill="var(--fill-0, #F26122)"/>
<path id="Path" d="M9.27224 7.37092C9.27026 6.25453 9.52733 5.15237 10.0239 4.14815C10.5205 3.14392 11.2436 2.26405 12.1383 1.57535C11.0313 0.721229 9.70207 0.190169 8.30239 0.0428628C6.90272 -0.104444 5.48908 0.137944 4.22302 0.742328C2.95696 1.34671 1.88955 2.28871 1.14278 3.46068C0.396013 4.63264 5.87204e-08 5.9873 5.87204e-08 7.36984C5.87204e-08 8.75239 0.396013 10.107 1.14278 11.279C1.88955 12.451 2.95696 13.393 4.22302 13.9974C5.48908 14.6017 6.90272 14.8441 8.30239 14.6968C9.70207 14.5495 11.0313 14.0185 12.1383 13.1643C11.2441 12.4756 10.5214 11.5961 10.0249 10.5923C9.52829 9.58853 9.27091 8.4869 9.27224 7.37092V7.37092Z" fill="var(--fill-0, #EA1D25)"/>
<path id="Vector_2" d="M24.2805 7.37072C24.28 8.75349 23.8835 10.1082 23.1363 11.2802C22.3891 12.4522 21.3213 13.3941 20.0549 13.9983C18.7885 14.6025 17.3746 14.8447 15.9747 14.6972C14.5749 14.5497 13.2454 14.0185 12.1384 13.1641C13.0316 12.4744 13.7537 11.5945 14.2502 10.5907C14.7467 9.58696 15.0047 8.48558 15.0047 7.36964C15.0047 6.2537 14.7467 5.15233 14.2502 4.14858C13.7537 3.14483 13.0316 2.2649 12.1384 1.57515C13.2454 0.720831 14.5749 0.189568 15.9747 0.0420631C17.3746 -0.105442 18.7885 0.136758 20.0549 0.740993C21.3213 1.34523 22.3891 2.28713 23.1363 3.45909C23.8835 4.63105 24.28 5.9858 24.2805 7.36857V7.37072Z" fill="var(--fill-0, #F69E1E)"/>
<path id="Vector_3" d="M23.5633 11.9357V11.6986H23.6731V11.649H23.4251V11.6986H23.5304V11.9357H23.5633ZM24.0439 11.9357V11.649H23.9693L23.8815 11.8645L23.7938 11.649H23.7279V11.9357H23.7828V11.7201L23.864 11.9076H23.9189L24 11.7201V11.9357H24.0439Z" fill="var(--fill-0, #F69E1E)"/>
</g>
</svg>
