<svg preserveAspectRatio="none" width="100%" height="100%" overflow="visible" style="display: block;" viewBox="0 0 100 19.1404" fill="none" xmlns="http://www.w3.org/2000/svg">
<g id="negativ">
<path id="Shape" d="M70.4399 0.1914L69.5161 5.0721C69.5161 5.11995 69.5161 5.21565 69.5601 5.2635C69.6041 5.31135 69.6481 5.3592 69.7361 5.3592H73.4147C73.5027 5.3592 73.5907 5.2635 73.5907 5.1678L74.5144 0.2871C74.5144 0.23925 74.5144 0.14355 74.4704 0.0957C74.4264 0.04785 74.3824 0 74.2945 0H70.6158C70.5279 0 70.4399 0.0957 70.4399 0.1914Z" fill="var(--fill-0, white)"/>
<path id="Shape Copy" d="M69.3074 6.31018L68.7097 9.30723C68.7097 9.35358 68.7097 9.44627 68.7554 9.49262C68.8012 9.53897 68.847 9.58531 68.9386 9.58531H72.6623C72.7539 9.58531 72.8454 9.49262 72.8454 9.39993L73.3871 6.40288C73.3871 6.35653 73.3871 6.26384 73.3413 6.21749C73.2955 6.17115 73.2498 6.1248 73.1582 6.1248H69.4905C69.399 6.1248 69.3074 6.21749 69.3074 6.31018Z" fill="var(--fill-0, #C7D300)"/>
<path id="Shape_2" d="M14.4814 14.7716C14.5248 14.4563 14.5682 14.096 14.5682 13.7808C14.5682 11.9344 13.5709 10.9436 11.6632 10.9436H6.28685C5.85328 10.9436 5.59313 10.9886 5.4197 10.8535C5.28963 10.7634 5.33299 10.5383 5.4197 10.223C5.50642 9.90776 5.76656 9.54748 6.11342 9.54748C6.50364 9.54748 6.46028 9.54748 6.76379 9.54748H15.392C15.4787 9.54748 15.5654 9.45741 15.5654 9.36734L16.129 6.39501C16.129 6.34998 16.129 6.25991 16.0857 6.21487C16.0423 6.16984 15.999 6.1248 15.9122 6.1248H6.67707C5.89664 6.1248 5.20291 6.16984 4.68262 6.25991C4.11897 6.34998 3.64204 6.48508 3.29518 6.75529C2.90496 7.02551 2.60146 7.43082 2.38467 7.92621C2.16788 8.4216 1.95109 9.05209 1.77766 9.81769L1.51752 11.0787L1.47416 11.3939V11.7092C1.47416 12.5198 1.77766 13.1953 2.38467 13.6907C2.99168 14.1861 3.81547 14.4113 4.94277 14.4113H10.3625C10.4492 14.4113 10.666 14.4113 10.666 14.5464C10.7093 14.7265 10.5359 15.4021 10.3191 15.5372C10.1023 15.7173 9.75546 15.6723 9.4086 15.6723H0.780437C0.693722 15.6723 0.607007 15.7624 0.607007 15.8524L0 18.8698C0 18.9148 0 19.0049 0.0433576 19.0499C0.0867152 19.095 0.130073 19.14 0.216788 19.14H9.49532C10.3191 19.14 11.0128 19.095 11.5331 19.0049C12.0968 18.9148 12.5737 18.7347 12.9206 18.4645C13.3108 18.1943 13.6143 17.7889 13.8311 17.2936C14.0479 16.8432 14.2647 16.1677 14.4381 15.4471L14.4814 14.7716Z" fill="var(--fill-0, white)"/>
<path id="Shape_3" d="M46.7742 6.30248C45.2509 6.30248 44.086 6.61343 43.2796 7.14647C42.4731 7.72394 41.9355 8.65677 41.6667 9.98938L40.5466 15.3643C40.457 15.6752 40.4122 15.9861 40.3674 16.2527C40.3226 16.5192 40.3226 16.7857 40.3226 17.0078C40.3226 17.4076 40.3674 17.763 40.5018 18.0295C40.6362 18.296 40.8602 18.5181 41.1738 18.6958C41.4875 18.8735 41.8459 18.9623 42.3387 19.0512C42.8315 19.0956 43.414 19.14 44.086 19.14H53.3602C53.4498 19.14 53.5394 19.0512 53.5842 18.9623L54.2115 15.9861C54.2115 15.9417 54.2115 15.8529 54.1667 15.8085C54.1219 15.764 54.0771 15.7196 53.9875 15.7196H46.1022C45.2957 15.7196 44.9821 15.6308 44.8477 15.5864C44.7581 15.5419 44.6237 15.4531 44.6237 15.1422C44.6237 14.9201 44.6685 14.6091 44.7581 14.2537L45.3853 11.2776C45.4749 10.9222 45.5645 10.6113 45.6541 10.3892C45.7437 10.2115 45.8781 10.0338 46.0125 9.90054C46.147 9.8117 46.3262 9.72286 46.5502 9.67844C46.819 9.63402 47.1326 9.63402 47.491 9.63402H50.7168C51.0753 9.63402 51.3441 9.67844 51.4337 9.76728C51.4785 9.8117 51.4785 9.85612 51.4785 9.94496C51.4785 10.0338 51.4785 10.1226 51.4337 10.2115C51.4337 10.2115 51.2993 10.789 51.2545 10.9666C50.9409 10.9666 47.0878 10.9666 47.0878 10.9666C46.8638 10.9666 46.6846 11.0999 46.6398 11.2776L46.0125 14.0761V14.1205C46.0125 14.1649 46.0125 14.2093 46.0573 14.2537C46.1022 14.2982 46.147 14.3426 46.2366 14.3426H54.3907C54.4803 14.3426 54.5699 14.2537 54.5699 14.1649L55.4211 9.94496C55.5556 9.32307 55.6452 8.79003 55.6452 8.3014C55.6452 7.45741 55.3315 6.87995 54.7491 6.569C54.2115 6.30248 53.2706 6.1248 51.8817 6.1248L46.7742 6.30248Z" fill="var(--fill-0, white)"/>
<path id="Shape_4" d="M86.4162 6.1248C87.1514 6.1248 87.7496 6.12488 88.2551 6.21464C88.7604 6.3044 89.1738 6.43941 89.4494 6.57402C89.771 6.75353 90.001 6.97767 90.1389 7.29179C90.2767 7.60591 90.3225 7.92015 90.3225 8.32402C90.3224 8.77271 90.2308 9.31113 90.093 9.93925L88.9436 15.4148C88.7598 16.2225 88.5765 16.8508 88.3469 17.2996C88.1172 17.7931 87.7954 18.1973 87.382 18.4666C86.9685 18.7359 86.4628 18.9159 85.8654 19.0057C85.314 19.0954 84.5784 19.1404 83.7053 19.1404H78.0539C76.6294 19.1404 75.6639 19.0054 75.1125 18.7361C74.5152 18.4669 74.1936 17.8835 74.1936 16.9861C74.1936 16.5373 74.2852 15.9982 74.423 15.3699L75.5725 9.89433C75.7562 9.13157 75.9853 8.50315 76.215 8.00957C76.4448 7.51589 76.7673 7.11185 77.1809 6.84257C77.5484 6.57352 78.0536 6.39423 78.6506 6.30449C79.202 6.21473 79.9377 6.16972 80.7648 6.16972L86.4162 6.1248ZM81.4543 9.58085C81.0407 9.58085 80.7183 9.5809 80.4426 9.62578C80.2132 9.67059 80.0295 9.71495 79.8918 9.80449C79.7539 9.89425 79.6614 10.0742 79.5695 10.2537C79.4776 10.4781 79.386 10.7923 79.2941 11.1961L78.6965 14.2029C78.6047 14.8304 78.5589 15.0553 78.5588 15.1453C78.5588 15.4591 78.6964 15.5496 78.7883 15.5945C78.9261 15.6394 79.2942 15.7293 80.0754 15.7293H82.9699C83.4294 15.7293 83.7518 15.7293 84.0275 15.6844C84.2571 15.6395 84.4405 15.5494 84.5783 15.4598C84.7161 15.37 84.8087 15.191 84.9006 15.0115C84.9925 14.7871 85.0382 14.4721 85.1301 14.1131L85.7277 11.1062C85.8196 10.4781 85.8654 10.2536 85.8654 10.1639C85.8654 9.85039 85.7278 9.76058 85.6359 9.71562C85.4981 9.67074 85.176 9.58085 84.3488 9.58085H81.4543Z" fill="var(--fill-0, white)"/>
<path id="Shape_5" d="M95.6161 0C95.5129 0 95.4098 0.0911429 95.4098 0.182286L91.129 18.8666C91.129 18.9121 91.129 19.0033 91.1806 19.0489C91.2322 19.0944 91.2838 19.14 91.3869 19.14H95.5129C95.6161 19.14 95.7192 19.0489 95.7192 18.9577L100 0.273429C100 0.227857 100 0.136714 99.9484 0.0911429C99.8969 0.0455714 99.8453 0 99.7421 0H95.6161V0Z" fill="var(--fill-0, white)"/>
<path id="Shape_6" d="M35.445 6.1248C35.3503 6.1248 35.2556 6.21456 35.2556 6.30432L33.5988 14.1134C33.5041 14.4725 33.4568 14.7418 33.3621 14.9662C33.2674 15.1457 33.1727 15.3252 33.0307 15.415C32.8887 15.5047 32.6993 15.5945 32.4626 15.6394C32.1786 15.6842 31.9892 15.6842 31.5632 15.6842H31.0898C30.2377 15.6842 29.9063 15.5945 29.7643 15.5496C29.6696 15.5047 29.5276 15.415 29.5276 15.1008C29.5276 15.011 31.3738 6.39408 31.3738 6.39408V6.3492C31.3738 6.30432 31.3738 6.25944 31.3265 6.21456C31.2792 6.16968 31.2318 6.1248 31.1371 6.1248H27.35C27.2554 6.1248 27.1607 6.21456 27.1607 6.30432L25.5038 14.1134C25.4091 14.4725 25.3618 14.7418 25.2671 14.9662C25.1724 15.1457 25.0778 15.3252 24.9358 15.415C24.7937 15.5047 24.6044 15.5945 24.3677 15.6394C24.0837 15.6842 23.8943 15.6842 23.4682 15.6842H22.8528C22.0007 15.6842 21.8587 15.5945 21.7167 15.5496C21.622 15.5047 21.48 15.3701 21.48 15.0559C21.48 14.8315 21.5747 14.5622 21.622 14.2032L23.2789 6.39408C23.2789 6.3492 23.2789 6.25944 23.2316 6.21456C23.1842 6.16968 23.1369 6.1248 23.0422 6.1248H19.2551C19.1604 6.1248 19.0657 6.21456 19.0657 6.30432L17.1722 15.3252C16.9828 16.0433 16.9355 16.537 16.9355 16.9409C16.9355 17.8385 17.2669 18.4219 17.8823 18.6912C18.4977 18.9605 19.4918 19.0951 20.9593 19.0951H23.4209C24.131 19.0951 25.2671 18.9156 25.7879 18.6912C26.2139 18.5117 26.5453 18.2873 26.8293 17.9282C26.9713 18.2873 27.35 18.6463 27.7761 18.8258C28.2968 19.0502 29.1489 19.14 30.6164 19.14H33.8828C35.6343 19.14 36.8652 18.781 37.2439 17.0306L39.5161 6.43896C39.5161 6.39408 39.5161 6.30432 39.4688 6.25944C39.4214 6.21456 39.3741 6.16968 39.2794 6.16968L35.445 6.1248Z" fill="var(--fill-0, white)"/>
<path id="Shape_7" d="M63.8579 6.16968C63.0271 6.16968 62.2887 6.21456 61.7348 6.30432C61.1349 6.39408 60.6272 6.5736 60.258 6.84288C59.8426 7.11216 59.5195 7.51608 59.2888 8.00976C59.058 8.50344 58.8272 9.13176 58.6426 9.89472L57.4888 15.3701C57.3504 15.9984 57.2581 16.537 57.2581 16.9858C57.2581 17.4346 57.3504 17.7936 57.4888 18.0629C57.6273 18.3322 57.858 18.6014 58.2273 18.7361C58.5503 18.8707 58.9657 19.0054 59.4272 19.0502C59.8888 19.0951 60.4426 19.14 61.181 19.14H70.6423C70.7346 19.14 70.8269 19.0502 70.8269 18.9605L72.5806 10.6577C72.5806 10.6128 72.5806 10.523 72.5345 10.4782C72.4883 10.4333 72.4422 10.3884 72.3499 10.3884H68.6577C68.5654 10.3884 68.4731 10.4782 68.4731 10.5679C67.7808 13.889 67.8731 13.53 67.4116 15.7291C67.0885 15.7291 63.1656 15.7291 63.1656 15.7291C62.3348 15.7291 62.0118 15.6394 61.8733 15.5945C61.781 15.5496 61.6425 15.4598 61.6425 15.1457C61.6425 15.0559 61.6887 14.8315 61.781 14.2032L62.4271 11.1962C62.5194 10.7923 62.6117 10.4782 62.704 10.2538C62.7964 10.0742 62.8887 9.89472 63.0271 9.80496C63.1656 9.7152 63.3502 9.67032 63.5809 9.62544C63.8579 9.58056 64.1809 9.58056 64.5963 9.58056H67.5962C67.6885 9.58056 67.7808 9.4908 67.827 9.40104L68.4269 6.39408C68.4269 6.3492 68.4269 6.25944 68.3808 6.21456C68.3346 6.16968 68.2885 6.1248 68.1962 6.1248L63.8579 6.16968Z" fill="var(--fill-0, white)"/>
</g>
</svg>
