<svg preserveAspectRatio="none" width="100%" height="100%" overflow="visible" style="display: block;" viewBox="0 0 119 22.7768" fill="none" xmlns="http://www.w3.org/2000/svg">
<g id="negativ">
<path id="Shape" d="M83.8235 0.227766L82.7242 6.0358C82.7242 6.09274 82.7242 6.20662 82.7765 6.26356C82.8289 6.32051 82.8812 6.37745 82.9859 6.37745H87.3635C87.4682 6.37745 87.5729 6.26356 87.5729 6.14968L88.6721 0.341649C88.6721 0.284708 88.6721 0.170824 88.6198 0.113883C88.5675 0.0569415 88.5151 0 88.4104 0H84.0328C83.9281 0 83.8235 0.113883 83.8235 0.227766Z" fill="var(--fill-0, white)"/>
<path id="Shape Copy" d="M82.4758 7.50912L81.7645 11.0756C81.7645 11.1308 81.7645 11.2411 81.819 11.2962C81.8735 11.3514 81.9279 11.4065 82.0369 11.4065H86.4681C86.5771 11.4065 86.686 11.2962 86.686 11.1859L87.3306 7.61942C87.3306 7.56427 87.3306 7.45397 87.2762 7.39882C87.2217 7.34366 87.1672 7.28851 87.0583 7.28851H82.6937C82.5848 7.28851 82.4758 7.39882 82.4758 7.50912Z" fill="var(--fill-0, #C7D300)"/>
<path id="Shape_2" d="M17.2329 17.5782C17.2845 17.203 17.3361 16.7743 17.3361 16.3992C17.3361 14.2019 16.1494 13.0229 13.8792 13.0229H7.48136C6.9654 13.0229 6.65583 13.0764 6.44945 12.9157C6.29466 12.8085 6.34625 12.5405 6.44945 12.1654C6.55264 11.7902 6.86221 11.3615 7.27497 11.3615C7.73933 11.3615 7.68774 11.3615 8.04891 11.3615H18.3164C18.4196 11.3615 18.5228 11.2543 18.5228 11.1471L19.1935 7.61006C19.1935 7.55647 19.1935 7.44929 19.142 7.3957C19.0904 7.3421 19.0388 7.28851 18.9356 7.28851H7.94572C7.017 7.28851 6.19147 7.3421 5.57232 7.44929C4.90158 7.55647 4.33403 7.71725 3.92126 8.0388C3.4569 8.36035 3.09573 8.84268 2.83776 9.43219C2.57978 10.0217 2.3218 10.772 2.11542 11.6831L1.80584 13.1836L1.75425 13.5588V13.9339C1.75425 14.8986 2.11542 15.7025 2.83776 16.292C3.56009 16.8815 4.54041 17.1494 5.88189 17.1494H12.3313C12.4345 17.1494 12.6925 17.1494 12.6925 17.3102C12.7441 17.5246 12.5377 18.3285 12.2797 18.4892C12.0218 18.7036 11.609 18.65 11.1962 18.65H0.92872C0.825529 18.65 0.722338 18.7572 0.722338 18.8644L0 22.455C0 22.5086 0 22.6158 0.0515956 22.6694C0.103191 22.723 0.154787 22.7766 0.257978 22.7766H11.2994C12.2797 22.7766 13.1053 22.723 13.7244 22.6158C14.3952 22.5086 14.9627 22.2943 15.3755 21.9727C15.8398 21.6512 16.201 21.1688 16.459 20.5793C16.717 20.0434 16.9749 19.2395 17.1813 18.3821L17.2329 17.5782Z" fill="var(--fill-0, white)"/>
<path id="Shape_3" d="M55.6613 7.49995C53.8486 7.49995 52.4624 7.86998 51.5027 8.5043C50.543 9.19149 49.9032 10.3016 49.5833 11.8874L48.2504 18.2835C48.1438 18.6535 48.0905 19.0235 48.0372 19.3407C47.9839 19.6578 47.9839 19.975 47.9839 20.2393C47.9839 20.715 48.0372 21.1379 48.1971 21.4551C48.3571 21.7723 48.6237 22.0366 48.9969 22.248C49.3701 22.4594 49.7966 22.5652 50.3831 22.6709C50.9695 22.7237 51.6626 22.7766 52.4624 22.7766H63.4987C63.6053 22.7766 63.7119 22.6709 63.7652 22.5652L64.5117 19.0235C64.5117 18.9707 64.5116 18.8649 64.4583 18.8121C64.405 18.7592 64.3517 18.7064 64.2451 18.7064H54.8616C53.9019 18.7064 53.5287 18.6006 53.3687 18.5478C53.2621 18.4949 53.1022 18.3892 53.1022 18.0192C53.1022 17.7549 53.1555 17.3848 53.2621 16.962L54.0085 13.4203C54.1151 12.9974 54.2218 12.6274 54.3284 12.3631C54.435 12.1517 54.595 11.9402 54.7549 11.7816C54.9149 11.6759 55.1281 11.5702 55.3947 11.5173C55.7146 11.4645 56.0878 11.4645 56.5143 11.4645H60.353C60.7796 11.4645 61.0995 11.5173 61.2061 11.6231C61.2594 11.6759 61.2594 11.7288 61.2594 11.8345C61.2594 11.9402 61.2594 12.0459 61.2061 12.1517C61.2061 12.1517 61.0461 12.8389 60.9928 13.0503C60.6196 13.0503 56.0345 13.0503 56.0345 13.0503C55.7679 13.0503 55.5547 13.2089 55.5013 13.4203L54.7549 16.7505V16.8034C54.7549 16.8562 54.7549 16.9091 54.8082 16.962C54.8616 17.0148 54.9149 17.0677 55.0215 17.0677H64.7249C64.8315 17.0677 64.9382 16.962 64.9382 16.8562L65.9512 11.8345C66.1111 11.0945 66.2177 10.4601 66.2177 9.87867C66.2177 8.87432 65.8445 8.18714 65.1514 7.81712C64.5116 7.49995 63.392 7.28851 61.7392 7.28851L55.6613 7.49995Z" fill="var(--fill-0, white)"/>
<path id="Shape_4" d="M102.836 7.28851C103.711 7.28851 104.421 7.28824 105.023 7.39496C105.624 7.50175 106.117 7.6625 106.445 7.82269C106.827 8.03632 107.101 8.30334 107.265 8.67718C107.429 9.05103 107.484 9.42503 107.484 9.9057C107.484 10.4397 107.374 11.081 107.21 11.8286L105.843 18.3442C105.624 19.3053 105.405 20.0533 105.132 20.5873C104.859 21.1744 104.476 21.6547 103.985 21.975C103.493 22.2954 102.891 22.5098 102.18 22.6166C101.524 22.7234 100.649 22.7768 99.6097 22.7768H92.8841C91.1891 22.7768 90.0403 22.6167 89.3841 22.2963C88.6733 21.9759 88.2904 21.2813 88.2903 20.2133C88.2903 19.6793 88.3997 19.0381 88.5638 18.2905L89.9309 11.7748C90.1497 10.8669 90.4232 10.1192 90.6966 9.53168C90.97 8.94421 91.3529 8.46344 91.845 8.143C92.2825 7.82265 92.8843 7.60918 93.595 7.50238C94.2511 7.39562 95.1257 7.34223 96.1097 7.34222L102.836 7.28851ZM96.93 11.4008C96.4379 11.4008 96.0549 11.4011 95.7268 11.4545C95.4536 11.5079 95.2346 11.5606 95.0706 11.6674C94.9066 11.7742 94.7971 11.988 94.6878 12.2016C94.5784 12.4686 94.469 12.843 94.3597 13.3237L93.6487 16.9018C93.5395 17.6484 93.4858 17.9158 93.4856 18.0229C93.4856 18.3961 93.6487 18.5036 93.7581 18.5571C93.9221 18.6105 94.36 18.7172 95.2893 18.7172H98.7347C99.2815 18.7172 99.6644 18.7179 99.9925 18.6645C100.266 18.6111 100.485 18.5037 100.649 18.3969C100.813 18.29 100.922 18.0763 101.032 17.8627C101.141 17.5958 101.196 17.2223 101.305 16.7953L102.016 13.2162C102.125 12.4689 102.18 12.2019 102.18 12.0952C102.18 11.7215 102.016 11.6144 101.907 11.561C101.742 11.5076 101.359 11.4008 100.375 11.4008H96.93Z" fill="var(--fill-0, white)"/>
<path id="Shape_5" d="M113.783 0C113.66 0 113.538 0.10846 113.538 0.21692L108.444 22.4512C108.444 22.5054 108.444 22.6139 108.505 22.6681C108.566 22.7224 108.628 22.7766 108.75 22.7766H113.66C113.783 22.7766 113.906 22.6681 113.906 22.5597L119 0.32538C119 0.27115 119 0.16269 118.939 0.10846C118.877 0.05423 118.816 0 118.693 0H113.783V0Z" fill="var(--fill-0, white)"/>
<path id="Shape_6" d="M42.1795 7.28851C42.0669 7.28851 41.9542 7.39533 41.9542 7.50214L39.9825 16.795C39.8699 17.2223 39.8135 17.5427 39.7009 17.8097C39.5882 18.0234 39.4755 18.237 39.3065 18.3438C39.1375 18.4506 38.9122 18.5574 38.6305 18.6108C38.2925 18.6642 38.0672 18.6642 37.5602 18.6642H36.9969C35.9829 18.6642 35.5885 18.5574 35.4195 18.504C35.3069 18.4506 35.1379 18.3438 35.1379 17.97C35.1379 17.8631 37.3349 7.60895 37.3349 7.60895V7.55555C37.3349 7.50214 37.3349 7.44873 37.2785 7.39533C37.2222 7.34192 37.1659 7.28851 37.0532 7.28851H32.5465C32.4339 7.28851 32.3212 7.39533 32.3212 7.50214L30.3495 16.795C30.2369 17.2223 30.1805 17.5427 30.0679 17.8097C29.9552 18.0234 29.8425 18.237 29.6735 18.3438C29.5045 18.4506 29.2792 18.5574 28.9975 18.6108C28.6595 18.6642 28.4342 18.6642 27.9272 18.6642H27.1949C26.1809 18.6642 26.0119 18.5574 25.8429 18.504C25.7302 18.4506 25.5612 18.2904 25.5612 17.9165C25.5612 17.6495 25.6739 17.3291 25.7302 16.9018L27.7019 7.60895C27.7019 7.55555 27.7019 7.44873 27.6455 7.39533C27.5892 7.34192 27.5329 7.28851 27.4202 7.28851H22.9136C22.8009 7.28851 22.6882 7.39533 22.6882 7.50214L20.4349 18.237C20.2096 19.0915 20.1532 19.679 20.1532 20.1596C20.1532 21.2278 20.5476 21.9221 21.2799 22.2425C22.0122 22.563 23.1952 22.7232 24.9416 22.7232H27.8709C28.7159 22.7232 30.0679 22.5096 30.6875 22.2425C31.1945 22.0289 31.5889 21.7619 31.9269 21.3346C32.0959 21.7619 32.5465 22.1891 33.0535 22.4027C33.6732 22.6698 34.6872 22.7766 36.4335 22.7766H40.3205C42.4049 22.7766 43.8695 22.3493 44.3202 20.2665L47.0242 7.66236C47.0242 7.60895 47.0242 7.50214 46.9679 7.44873C46.9115 7.39533 46.8552 7.34192 46.7425 7.34192L42.1795 7.28851Z" fill="var(--fill-0, white)"/>
<path id="Shape_7" d="M75.9908 7.34192C75.0023 7.34192 74.1235 7.39533 73.4645 7.50214C72.7505 7.60895 72.1464 7.82258 71.707 8.14303C71.2127 8.46347 70.8282 8.94413 70.5536 9.53161C70.279 10.1191 70.0044 10.8668 69.7847 11.7747L68.4117 18.2904C68.2469 19.0381 68.1371 19.679 68.1371 20.2131C68.1371 20.7471 68.2469 21.1744 68.4117 21.4948C68.5765 21.8153 68.8511 22.1357 69.2904 22.2959C69.6749 22.4562 70.1692 22.6164 70.7184 22.6698C71.2676 22.7232 71.9267 22.7766 72.8054 22.7766H84.0643C84.1741 22.7766 84.284 22.6698 84.284 22.563L86.371 12.6826C86.371 12.6292 86.371 12.5224 86.316 12.469C86.2611 12.4156 86.2062 12.3622 86.0964 12.3622H81.7027C81.5928 12.3622 81.483 12.469 81.483 12.5758C80.6592 16.528 80.769 16.1007 80.2198 18.7177C79.8353 18.7177 75.167 18.7177 75.167 18.7177C74.1784 18.7177 73.794 18.6108 73.6292 18.5574C73.5194 18.504 73.3546 18.3972 73.3546 18.0234C73.3546 17.9165 73.4095 17.6495 73.5194 16.9018L74.2883 13.3235C74.3981 12.8429 74.508 12.469 74.6178 12.202C74.7277 11.9883 74.8375 11.7747 75.0023 11.6679C75.167 11.5611 75.3867 11.5077 75.6613 11.4543C75.9908 11.4009 76.3753 11.4009 76.8696 11.4009H80.4395C80.5493 11.4009 80.6592 11.2941 80.7141 11.1872L81.4281 7.60895C81.4281 7.55555 81.4281 7.44873 81.3731 7.39533C81.3182 7.34192 81.2633 7.28851 81.1534 7.28851L75.9908 7.34192Z" fill="var(--fill-0, white)"/>
</g>
</svg>
