<svg preserveAspectRatio="none" width="100%" height="100%" overflow="visible" style="display: block;" viewBox="0 0 20 13" fill="none" xmlns="http://www.w3.org/2000/svg">
<path id="Vector" d="M7.95451 9.24357V3.75651L13.1818 6.50012L7.95451 9.24357ZM19.582 2.02997C19.352 1.23094 18.6743 0.601671 17.8138 0.388114C16.2542 0 9.99996 0 9.99996 0C9.99996 0 3.74582 0 2.18616 0.388114C1.32571 0.601671 0.647982 1.23094 0.417954 2.02997C0 3.47824 0 6.50004 0 6.50004C0 6.50004 0 9.52168 0.417954 10.97C0.647982 11.7691 1.32562 12.3983 2.18616 12.612C3.74582 13 9.99996 13 9.99996 13C9.99996 13 16.2542 13 17.8138 12.612C18.6743 12.3983 19.352 11.7691 19.582 10.97C20 9.52168 20 6.49996 20 6.49996C20 6.49996 20 3.47824 19.582 2.02997Z" fill="var(--fill-0, white)"/>
</svg>
