<svg preserveAspectRatio="none" width="100%" height="100%" overflow="visible" style="display: block;" viewBox="0 0 48 28" fill="none" xmlns="http://www.w3.org/2000/svg">
<g id="Group 2320">
<path id="Rectangle 2" d="M0 4.19759C0 1.87933 1.87933 0 4.19759 0H43.8024C46.1207 0 48 1.87933 48 4.19759V23.8024C48 26.1207 46.1207 28 43.8024 28H4.19759C1.87933 28 0 26.1207 0 23.8024V4.19759Z" fill="var(--fill-0, #FFB3C7)"/>
<path id="Vector" d="M39.4153 15.7695C39.2925 15.7699 39.171 15.7946 39.0577 15.842C38.9444 15.8895 38.8416 15.9588 38.7552 16.046C38.6687 16.1332 38.6003 16.2365 38.5539 16.3501C38.5075 16.4638 38.484 16.5854 38.4847 16.7082C38.484 16.8309 38.5075 16.9526 38.5539 17.0662C38.6003 17.1798 38.6687 17.2832 38.7552 17.3704C38.8416 17.4576 38.9444 17.5269 39.0577 17.5743C39.171 17.6218 39.2925 17.6464 39.4153 17.6469C39.9286 17.6469 40.3459 17.2264 40.3459 16.7082C40.3466 16.5854 40.3231 16.4638 40.2767 16.3501C40.2302 16.2365 40.1619 16.1332 40.0754 16.046C39.989 15.9588 39.8862 15.8895 39.7729 15.842C39.6596 15.7946 39.5381 15.7699 39.4153 15.7695V15.7695ZM36.3528 15.0445C36.3528 14.3344 35.7513 13.7595 35.0092 13.7595C34.2671 13.7595 33.6656 14.3353 33.6656 15.0445C33.6656 15.7538 34.268 16.3287 35.0101 16.3287C35.7521 16.3287 36.3528 15.7538 36.3528 15.0445V15.0445ZM36.358 12.5469H37.8404V17.5413H36.358V17.222C35.9258 17.5201 35.413 17.6796 34.8879 17.6791C33.4448 17.6791 32.2749 16.4997 32.2749 15.0445C32.2749 13.5894 33.4448 12.4099 34.8879 12.4099C35.4335 12.4099 35.939 12.5783 36.358 12.867V12.5469ZM24.492 13.1977V12.5477H22.9738V17.5413H24.4955V15.2094C24.4955 14.4225 25.3406 14.0003 25.9272 14.0003H25.9447V12.5477C25.3423 12.5477 24.7897 12.8077 24.492 13.1977V13.1977ZM20.7101 15.0445C20.7101 14.3344 20.1086 13.7595 19.3666 13.7595C18.6245 13.7595 18.023 14.3353 18.023 15.0445C18.023 15.7538 18.6254 16.3287 19.3674 16.3287C20.1095 16.3287 20.7101 15.7538 20.7101 15.0445V15.0445ZM20.7154 12.5469H22.1986V17.5413H20.7154V17.222C20.2963 17.5099 19.7908 17.6791 19.2452 17.6791C17.8021 17.6791 16.6323 16.4997 16.6323 15.0445C16.6323 13.5894 17.8021 12.4099 19.2452 12.4099C19.7908 12.4099 20.2963 12.5783 20.7154 12.867V12.5469ZM29.6402 12.4134C29.0483 12.4134 28.4878 12.5983 28.1124 13.1096V12.5477H26.6361V17.5413H28.1307V14.9172C28.1307 14.1582 28.6353 13.7857 29.2438 13.7857C29.8951 13.7857 30.2705 14.1782 30.2705 14.9067V17.5413H31.7511V14.3658C31.7511 13.2038 30.8345 12.4134 29.6402 12.4134V12.4134ZM14.4724 17.5413H16.0247V10.3223H14.4724V17.5413ZM7.65422 17.5431H9.2981V10.3205H7.65509L7.65422 17.5431ZM13.4039 10.3205C13.4039 11.8838 12.7998 13.339 11.7225 14.4199L13.994 17.5431H11.9643L9.49627 14.1494L10.1336 13.6679C10.6524 13.278 11.0727 12.7722 11.3611 12.191C11.6494 11.6098 11.7976 10.9692 11.794 10.3205H13.4021H13.4039Z" fill="var(--fill-0, #0A0B09)"/>
</g>
</svg>
