<svg preserveAspectRatio="none" width="100%" height="100%" overflow="visible" style="display: block;" viewBox="0 0 19.2002 19.2002" fill="none" xmlns="http://www.w3.org/2000/svg">
<path id="Union" d="M4.46973 6.16895C4.64059 6.16916 4.77926 6.30827 4.7793 6.47949V18.8896C4.77925 19.0609 4.64058 19.2 4.46973 19.2002H0.615234C0.444196 19.2002 0.305711 19.0611 0.305664 18.8896V6.47949C0.305696 6.30814 0.444187 6.16895 0.615234 6.16895H4.46973ZM14.2734 5.86133C18.6145 5.8615 19.2002 9.00647 19.2002 12.083V18.8896C19.2002 19.0609 19.0615 19.2 18.8906 19.2002H15.043C14.8719 19.2002 14.7334 19.0611 14.7334 18.8896V12.8564C14.7334 11.1671 14.6084 9.87402 13.041 9.87402C11.6019 9.87406 11.041 10.681 11.041 12.75V18.8896C11.041 19.0611 10.9025 19.2002 10.7314 19.2002H6.88574C6.71467 19.2002 6.57617 19.0611 6.57617 18.8896V6.47949C6.57625 6.30818 6.71472 6.16895 6.88574 6.16895H10.5771C10.748 6.16913 10.8866 6.30829 10.8867 6.47949V7.28613C11.5808 6.52829 12.7253 5.86133 14.2734 5.86133ZM2.54395 0C3.94497 0.000260748 5.08482 1.14221 5.08496 2.5459C5.08496 3.95031 3.94509 5.09349 2.54395 5.09375C1.14147 5.09375 0 3.95053 0 2.5459C0.000202401 1.14205 1.14159 0 2.54395 0Z" fill="var(--fill-0, white)"/>
</svg>
