<svg preserveAspectRatio="none" width="100%" height="100%" overflow="visible" style="display: block;" viewBox="0 0 29.619 9.35514" fill="none" xmlns="http://www.w3.org/2000/svg">
<path id="Vector" d="M11.2467 0.167107L7.3672 9.21682H4.83684L2.92803 1.99376C2.91007 1.82453 2.84813 1.66262 2.7481 1.52342C2.64807 1.38423 2.51328 1.2724 2.35656 1.19856C1.60696 0.846258 0.815313 0.586868 0 0.426411L0.0589131 0.164226H4.12987C4.39555 0.1632 4.6528 0.255367 4.85493 0.423999C5.05707 0.592631 5.1907 0.826553 5.23157 1.08331L6.24194 6.32126L8.73695 0.164226H11.2585L11.2467 0.167107ZM21.1707 6.26076C21.1707 3.87228 17.795 3.73974 17.8185 2.67371C17.8185 2.35102 18.1396 2.0024 18.8348 1.91309C19.6431 1.83802 20.4572 1.97736 21.1914 2.31645L21.6126 0.3976C20.8965 0.135902 20.1384 0.00125961 19.3739 0C17.0173 0 15.3412 1.22737 15.3294 2.98776C15.3147 4.29004 16.5077 5.00457 17.4238 5.44827C18.3399 5.89197 18.6699 6.17432 18.664 6.5748C18.664 7.18561 17.9216 7.43915 17.2323 7.4622C16.3755 7.47991 15.5284 7.28146 14.7727 6.88597L14.3338 8.87685C15.1797 9.19498 16.0786 9.35714 16.9849 9.35512C19.5094 9.35512 21.1501 8.14215 21.159 6.26076H21.1707ZM27.4068 9.21682H29.619L27.6837 0.167107H25.6423C25.4237 0.164923 25.2095 0.227268 25.0277 0.346C24.8459 0.464732 24.7049 0.634333 24.6231 0.832654L21.0294 9.21682H23.545L24.0546 7.86556H27.127L27.4068 9.21682ZM24.735 6.0101L25.9958 2.61321L26.7204 6.0101H24.735ZM14.6666 0.167107L12.6871 9.21682H10.2923L12.2718 0.167107H14.6666Z" fill="var(--fill-0, #2F2E7D)"/>
</svg>
